<svg width="24" height="27" viewBox="0 0 24 27" fill="none" xmlns="http://www.w3.org/2000/svg">
<path fill-rule="evenodd" clip-rule="evenodd" d="M4 13.9097C4.00014 12.2436 4.44451 10.613 5.27979 9.21354C6.11506 7.81403 7.30576 6.70506 8.70901 6.0197C10.1123 5.33434 11.6684 5.1017 13.1908 5.3497C14.7132 5.59769 16.1372 6.31579 17.2918 7.41782C18.4464 8.51985 19.2826 9.959 19.7002 11.5626C20.1177 13.1662 20.0988 14.8661 19.6457 16.4583C19.1926 18.0506 18.3246 19.4675 17.1458 20.5391C15.967 21.6108 14.5275 22.2915 13 22.4998V16.074H15C15.2652 16.074 15.5196 15.96 15.7071 15.757C15.8946 15.5541 16 15.2788 16 14.9918C16 14.7048 15.8946 14.4296 15.7071 14.2266C15.5196 14.0237 15.2652 13.9097 15 13.9097H13V11.7454C13 11.4584 13.1054 11.1831 13.2929 10.9802C13.4804 10.7772 13.7348 10.6632 14 10.6632H14.5C14.7652 10.6632 15.0196 10.5492 15.2071 10.3463C15.3946 10.1433 15.5 9.86806 15.5 9.58105C15.5 9.29405 15.3946 9.0188 15.2071 8.81586C15.0196 8.61291 14.7652 8.4989 14.5 8.4989H14C13.2044 8.4989 12.4413 8.84094 11.8787 9.44977C11.3161 10.0586 11 10.8843 11 11.7454V13.9097H9C8.73478 13.9097 8.48043 14.0237 8.29289 14.2266C8.10536 14.4296 8 14.7048 8 14.9918C8 15.2788 8.10536 15.5541 8.29289 15.757C8.48043 15.96 8.73478 16.074 9 16.074H11V22.4998C9.0667 22.236 7.28882 21.2177 6 19.6361C4.71119 18.0546 4.00003 16.0184 4 13.9097ZM12 24.7312C17.523 24.7312 22 19.8864 22 13.9097C22 7.93293 17.523 3.08813 12 3.08813C6.477 3.08813 2 7.93293 2 13.9097C2 19.8864 6.477 24.7312 12 24.7312Z" fill="black"/>
</svg>
