<svg width="22" height="24" viewBox="0 0 22 24" fill="none" xmlns="http://www.w3.org/2000/svg">
<path d="M11 16.7192C12.1787 16.7192 13.3092 16.2125 14.1427 15.3105C14.9762 14.4086 15.4444 13.1852 15.4444 11.9097C15.4444 10.6341 14.9762 9.41076 14.1427 8.50879C13.3092 7.60682 12.1787 7.1001 11 7.1001C9.82125 7.1001 8.69078 7.60682 7.85729 8.50879C7.02379 9.41076 6.55554 10.6341 6.55554 11.9097C6.55554 13.1852 7.02379 14.4086 7.85729 15.3105C8.69078 16.2125 9.82125 16.7192 11 16.7192Z" stroke="black" stroke-width="1.5" stroke-linecap="round" stroke-linejoin="round"/>
<path d="M1 16.7192V7.1001C1 5.50562 1.58532 3.97646 2.62718 2.849C3.66905 1.72154 5.08213 1.08813 6.55556 1.08813H15.4444C16.9179 1.08813 18.3309 1.72154 19.3728 2.849C20.4147 3.97646 21 5.50562 21 7.1001V16.7192C21 18.3137 20.4147 19.8429 19.3728 20.9703C18.3309 22.0978 16.9179 22.7312 15.4444 22.7312H6.55556C5.08213 22.7312 3.66905 22.0978 2.62718 20.9703C1.58532 19.8429 1 18.3137 1 16.7192Z" stroke="black" stroke-width="1.5"/>
<path d="M17.1111 5.30742L17.1222 5.29419" stroke="black" stroke-width="1.5" stroke-linecap="round" stroke-linejoin="round"/>
</svg>
