<svg width="22" height="24" viewBox="0 0 22 24" fill="none" xmlns="http://www.w3.org/2000/svg">
<path d="M11.0724 22.3129C9.21827 22.5425 7.33875 22.1874 5.69617 21.2972C4.0536 20.407 2.72997 19.0262 1.91003 17.3475C1.0901 15.6687 0.814794 13.7759 1.12254 11.9331C1.43029 10.0904 2.30574 8.3897 3.62668 7.0685L9.50162 1.19356C9.62571 1.06962 9.79393 1 9.96932 1C10.1447 1 10.3129 1.06962 10.437 1.19356L16.312 7.0685C17.4805 8.23607 18.3038 9.7037 18.6912 11.3095C19.0785 12.9153 19.0148 14.5969 18.5071 16.1688M14.3816 20.5811L16.5877 22.7872L21 18.3749" stroke="#372316" stroke-width="1.5" stroke-linecap="round" stroke-linejoin="round"/>
</svg>
