<svg width="20" height="20" viewBox="0 0 20 20" fill="none" xmlns="http://www.w3.org/2000/svg">
<path d="M2.22222 0C1.63285 0 1.06762 0.234126 0.650874 0.650874C0.234126 1.06762 0 1.63285 0 2.22222V4.44444H2.22222V2.22222H17.7778V4.44444H20V2.22222C20 1.63285 19.7659 1.06762 19.3491 0.650874C18.9324 0.234126 18.3671 0 17.7778 0H2.22222ZM5.55556 4.44444V6.66667H14.4444V4.44444H5.55556ZM0 6.66667V10C0 12.6522 1.05357 15.1957 2.92893 17.0711C4.8043 18.9464 7.34784 20 10 20C12.6522 20 15.1957 18.9464 17.0711 17.0711C18.9464 15.1957 20 12.6522 20 10V6.66667H17.7778V10C17.7778 12.0628 16.9583 14.0411 15.4997 15.4997C14.0411 16.9583 12.0628 17.7778 10 17.7778C7.93721 17.7778 5.9589 16.9583 4.50028 15.4997C3.04166 14.0411 2.22222 12.0628 2.22222 10V6.66667H0ZM10 10C9.26329 10 8.55675 10.2927 8.03582 10.8136C7.51488 11.3345 7.22222 12.0411 7.22222 12.7778C7.22222 13.5145 7.51488 14.221 8.03582 14.742C8.55675 15.2629 9.26329 15.5556 10 15.5556C10.7367 15.5556 11.4433 15.2629 11.9642 14.742C12.4851 14.221 12.7778 13.5145 12.7778 12.7778C12.7778 12.0411 12.4851 11.3345 11.9642 10.8136C11.4433 10.2927 10.7367 10 10 10Z" fill="#372316"/>
</svg>
